<svg width="40" height="40" viewBox="0 0 40 40" fill="none" xmlns="http://www.w3.org/2000/svg">
<path d="M29.6646 34.1772H9.24786C3.77911 34.1772 3.77911 31.1438 3.77911 28.7084V27.2501C3.77911 25.8501 4.9312 24.698 6.3312 24.698H32.5812C33.9812 24.698 35.1333 25.8501 35.1333 27.2501V28.7084C35.1333 31.1438 35.1333 34.1772 29.6646 34.1772ZM6.3312 26.8855C6.12703 26.8855 5.96661 27.0459 5.96661 27.2501V28.7084C5.96661 31.1001 5.96661 31.9897 9.24786 31.9897H29.6646C32.9458 31.9897 32.9458 31.1001 32.9458 28.7084V27.2501C32.9458 27.0459 32.7854 26.8855 32.5812 26.8855H6.3312Z" fill="#B8B8B8"/>
<path d="M32.2167 26.8855H6.7688C6.17088 26.8855 5.67505 26.3897 5.67505 25.7917V19.9584C5.67505 13.9792 9.9188 8.72925 15.7521 7.48966C16.6125 7.30008 17.5167 7.198 18.4354 7.198H20.55C21.4834 7.198 22.3875 7.30008 23.2479 7.48966C29.0813 8.74383 33.3104 13.9938 33.3104 19.9584V25.7917C33.3104 26.3897 32.8292 26.8855 32.2167 26.8855ZM7.86255 24.698H31.1229V19.9584C31.1229 15.0147 27.6229 10.6688 22.7813 9.61883C22.0667 9.45841 21.3229 9.3855 20.55 9.3855H18.4354C17.6771 9.3855 16.9334 9.45841 16.2188 9.61883C11.3771 10.6542 7.86255 15.0001 7.86255 19.9584V24.698Z" fill="#B8B8B8"/>
<path d="M15.9854 9.648C15.5042 9.648 15.0667 9.32716 14.9354 8.84591C14.8188 8.423 14.7604 8.00008 14.7604 7.56258C14.7604 4.95216 16.8896 2.823 19.5 2.823C22.1104 2.823 24.2396 4.95216 24.2396 7.56258C24.2396 8.00008 24.1813 8.423 24.0646 8.84591C23.9188 9.40008 23.3646 9.75008 22.7813 9.61883C22.0667 9.45841 21.3229 9.3855 20.55 9.3855H18.4354C17.6771 9.3855 16.9334 9.45841 16.2188 9.61883C16.1459 9.63341 16.0729 9.648 15.9854 9.648ZM18.4354 7.198H20.55C21.0459 7.198 21.5563 7.22716 22.0375 7.2855C21.9063 6.00216 20.8125 5.0105 19.5 5.0105C18.1875 5.0105 17.1084 6.00216 16.9625 7.2855C17.4584 7.22716 17.9396 7.198 18.4354 7.198Z" fill="#B8B8B8"/>
<path d="M23.875 18.1355H15.125C14.5271 18.1355 14.0312 17.6397 14.0312 17.0417C14.0312 16.4438 14.5271 15.948 15.125 15.948H23.875C24.4729 15.948 24.9687 16.4438 24.9687 17.0417C24.9687 17.6397 24.4729 18.1355 23.875 18.1355Z" fill="#B8B8B8"/>
</svg>
