<svg width="40" height="40" viewBox="0 0 40 40" fill="none" xmlns="http://www.w3.org/2000/svg">
<path d="M34.0406 27.2501V28.7084C34.0406 31.1147 34.0406 33.0834 29.6656 33.0834H9.24896C4.87396 33.0834 4.87396 31.1147 4.87396 28.7084V27.2501C4.87396 26.448 5.53021 25.7917 6.3323 25.7917H32.5823C33.3844 25.7917 34.0406 26.448 34.0406 27.2501Z" fill="#878787"/>
<path d="M23.0139 8.55383C23.0868 8.26217 23.1305 7.98508 23.1451 7.67883C23.1889 5.98717 22.1534 4.49967 20.5201 4.06217C18.0701 3.39133 15.8535 5.22883 15.8535 7.56217C15.8535 7.91217 15.8972 8.233 15.9847 8.55383C10.7201 9.67675 6.76807 14.358 6.76807 19.958V22.1455C6.76807 22.9476 7.42432 23.6039 8.2264 23.6039H30.7576C31.5597 23.6039 32.2159 22.9476 32.2159 22.1455V19.958C32.2159 14.358 28.2784 9.69133 23.0139 8.55383ZM23.8743 18.1351H15.1243C14.5264 18.1351 14.0306 17.6393 14.0306 17.0414C14.0306 16.4435 14.5264 15.9476 15.1243 15.9476H23.8743C24.4722 15.9476 24.968 16.4435 24.968 17.0414C24.968 17.6393 24.4722 18.1351 23.8743 18.1351Z" fill="#878787"/>
</svg>
