<svg width="40" height="40" viewBox="0 0 40 40" fill="none" xmlns="http://www.w3.org/2000/svg">
<path d="M32.25 9.35721H11C10.25 9.35721 9.75 8.92864 9.75 8.28578C9.75 7.64293 10.25 7.21436 11 7.21436H32.25C33 7.21436 33.5 7.64293 33.5 8.28578C33.5 8.92864 33 9.35721 32.25 9.35721Z" fill="#878787"/>
<path d="M32.25 10.4286H21V24.3571L17.25 23.2857L13.5 24.3571V10.4286H11C9.625 10.4286 8.5 9.46429 8.5 8.28571C8.5 7.10714 9.625 6.14286 11 6.14286H32.25C33 6.14286 33.5 5.71429 33.5 5.07143C33.5 4.42857 33 4 32.25 4H11C8.25 4 6 5.92857 6 8.28571V29.7143C6 32.0714 8.25 34 11 34H32.25C33 34 33.5 33.5714 33.5 32.9286V11.5C33.5 10.8571 33 10.4286 32.25 10.4286Z" fill="#878787"/>
</svg>
