<svg width="13" height="13" viewBox="0 0 13 13" fill="none" xmlns="http://www.w3.org/2000/svg">
<path d="M11.8061 3.08744L5.30611 9.58744C5.2495 9.64425 5.18223 9.68933 5.10816 9.72009C5.03409 9.75084 4.95467 9.76667 4.87447 9.76667C4.79427 9.76667 4.71485 9.75084 4.64078 9.72009C4.56671 9.68933 4.49944 9.64425 4.44283 9.58744L1.59908 6.74369C1.5424 6.68701 1.49743 6.61972 1.46675 6.54566C1.43608 6.47159 1.42029 6.39222 1.42029 6.31205C1.42029 6.23189 1.43608 6.15251 1.46675 6.07845C1.49743 6.00439 1.5424 5.9371 1.59908 5.88041C1.65576 5.82373 1.72306 5.77876 1.79712 5.74809C1.87118 5.71741 1.95056 5.70162 2.03072 5.70162C2.11088 5.70162 2.19026 5.71741 2.26432 5.74809C2.33838 5.77876 2.40568 5.82373 2.46236 5.88041L4.87498 8.29303L10.9438 2.22518C11.0583 2.1107 11.2136 2.04639 11.3755 2.04639C11.5374 2.04639 11.6926 2.1107 11.8071 2.22518C11.9216 2.33966 11.9859 2.49492 11.9859 2.65682C11.9859 2.81872 11.9216 2.97398 11.8071 3.08846L11.8061 3.08744Z" fill="white"/>
</svg>
