<svg width="24" height="23" viewBox="0 0 24 23" fill="none" xmlns="http://www.w3.org/2000/svg">
<path d="M12.2667 4.6001C10.7899 4.6001 9.34635 5.01976 8.11846 5.80603C6.89057 6.59229 5.93355 7.70983 5.36842 9.01734C4.80328 10.3248 4.65542 11.7636 4.94352 13.1516C5.23162 14.5397 5.94276 15.8147 6.98699 16.8154C8.03122 17.8161 9.36165 18.4976 10.81 18.7737C12.2584 19.0498 13.7597 18.9081 15.1241 18.3665C16.4884 17.8249 17.6546 16.9078 18.475 15.7311C19.2955 14.5543 19.7334 13.1709 19.7334 11.7557C19.7312 9.85853 18.9438 8.03971 17.544 6.69824C16.1442 5.35676 14.2463 4.6022 12.2667 4.6001ZM12.2667 17.3211C11.1181 17.3211 9.99532 16.9947 9.0403 16.3831C8.08527 15.7716 7.34092 14.9024 6.90137 13.8855C6.46182 12.8685 6.34682 11.7495 6.5709 10.6699C6.79498 9.5903 7.34808 8.59864 8.16026 7.8203C8.97244 7.04196 10.0072 6.5119 11.1337 6.29716C12.2603 6.08242 13.4279 6.19263 14.4891 6.61386C15.5503 7.0351 16.4573 7.74843 17.0954 8.66366C17.7335 9.5789 18.0741 10.6549 18.0741 11.7557C18.0725 13.2312 17.4601 14.6459 16.3714 15.6893C15.2826 16.7326 13.8064 17.3195 12.2667 17.3211ZM16.9679 11.7557C16.9679 11.9665 16.8805 12.1687 16.725 12.3178C16.5694 12.4669 16.3584 12.5507 16.1383 12.5507H12.2667C12.0467 12.5507 11.8357 12.4669 11.6801 12.3178C11.5245 12.1687 11.4371 11.9665 11.4371 11.7557V8.04536C11.4371 7.8345 11.5245 7.63227 11.6801 7.48317C11.8357 7.33407 12.0467 7.2503 12.2667 7.2503C12.4867 7.2503 12.6978 7.33407 12.8534 7.48317C13.0089 7.63227 13.0963 7.8345 13.0963 8.04536V10.9606H16.1383C16.3584 10.9606 16.5694 11.0444 16.725 11.1935C16.8805 11.3426 16.9679 11.5448 16.9679 11.7557Z" fill="#7288FF"/>
</svg>
