<svg width="18" height="18" viewBox="0 0 18 18" fill="none" xmlns="http://www.w3.org/2000/svg">
<path d="M9 2C7.41775 2 5.87103 2.46919 4.55544 3.34824C3.23985 4.22729 2.21447 5.47672 1.60897 6.93853C1.00347 8.40034 0.84504 10.0089 1.15372 11.5607C1.4624 13.1126 2.22433 14.538 3.34315 15.6569C4.46197 16.7757 5.88743 17.5376 7.43928 17.8463C8.99113 18.155 10.5997 17.9965 12.0615 17.391C13.5233 16.7855 14.7727 15.7602 15.6518 14.4446C16.5308 13.129 17 11.5822 17 10C16.9976 7.87899 16.154 5.84552 14.6543 4.34574C13.1545 2.84596 11.121 2.00235 9 2ZM9 16.2222C7.76936 16.2222 6.56636 15.8573 5.54312 15.1736C4.51988 14.4899 3.72236 13.5181 3.25142 12.3811C2.78047 11.2442 2.65725 9.9931 2.89734 8.7861C3.13743 7.57911 3.73003 6.47042 4.60023 5.60022C5.47042 4.73003 6.57911 4.13742 7.78611 3.89734C8.9931 3.65725 10.2442 3.78047 11.3811 4.25142C12.5181 4.72236 13.4899 5.51988 14.1736 6.54312C14.8573 7.56636 15.2222 8.76936 15.2222 10C15.2205 11.6497 14.5643 13.2313 13.3978 14.3978C12.2313 15.5643 10.6497 16.2205 9 16.2222ZM14.037 10C14.037 10.2357 13.9434 10.4618 13.7767 10.6285C13.61 10.7952 13.3839 10.8889 13.1481 10.8889H9C8.76425 10.8889 8.53816 10.7952 8.37146 10.6285C8.20476 10.4618 8.11111 10.2357 8.11111 10V5.85185C8.11111 5.6161 8.20476 5.39001 8.37146 5.22331C8.53816 5.05661 8.76425 4.96296 9 4.96296C9.23575 4.96296 9.46184 5.05661 9.62854 5.22331C9.79524 5.39001 9.88889 5.6161 9.88889 5.85185V9.11111H13.1481C13.3839 9.11111 13.61 9.20476 13.7767 9.37146C13.9434 9.53816 14.037 9.76425 14.037 10Z" fill="#A6A6A6"/>
</svg>
