<svg width="25" height="25" viewBox="0 0 25 25" fill="none" xmlns="http://www.w3.org/2000/svg">
<path d="M12.1563 17.8165L4.3438 10.004C4.12365 9.78383 3.99997 9.48525 3.99997 9.17391C3.99997 8.86257 4.12365 8.56398 4.3438 8.34383C4.56395 8.12368 4.86254 8 5.17387 8C5.48521 8 5.7838 8.12368 6.00395 8.34383L12.9854 15.3272L19.9688 8.34578C20.0778 8.23678 20.2072 8.15031 20.3496 8.09131C20.4921 8.03232 20.6447 8.00195 20.7989 8.00195C20.953 8.00195 21.1057 8.03232 21.2481 8.09131C21.3905 8.15031 21.5199 8.23678 21.6289 8.34578C21.738 8.45479 21.8244 8.5842 21.8834 8.72663C21.9424 8.86905 21.9728 9.0217 21.9728 9.17586C21.9728 9.33002 21.9424 9.48267 21.8834 9.6251C21.8244 9.76752 21.738 9.89693 21.6289 10.0059L13.8165 17.8184C13.7075 17.9276 13.578 18.0141 13.4355 18.0731C13.293 18.1321 13.1402 18.1623 12.986 18.1621C12.8317 18.162 12.679 18.1313 12.5367 18.072C12.3943 18.0127 12.265 17.9259 12.1563 17.8165Z" fill="#B1B1B1"/>
</svg>
