<svg width="42" height="42" viewBox="0 0 42 42" fill="none" xmlns="http://www.w3.org/2000/svg">
<path d="M21.07 4C17.6939 4 14.3936 5.0229 11.5864 6.93935C8.77927 8.8558 6.59137 11.5797 5.29938 14.7667C4.0074 17.9536 3.66935 21.4604 4.328 24.8437C4.98665 28.2269 6.61241 31.3346 8.99969 33.7738C11.387 36.213 14.4286 37.8741 17.7398 38.547C21.0511 39.22 24.4833 38.8746 27.6024 37.5545C30.7215 36.2345 33.3875 33.999 35.2632 31.1308C37.1389 28.2627 38.14 24.8906 38.14 21.4411C38.1352 16.8169 36.3352 12.3835 33.135 9.11377C29.9348 5.84399 25.5958 4.00488 21.07 4ZM27.2513 25.8584C27.3733 25.983 27.4701 26.131 27.5361 26.2939C27.6021 26.4567 27.6361 26.6313 27.6361 26.8076C27.6361 26.9839 27.6021 27.1584 27.5361 27.3213C27.4701 27.4841 27.3733 27.6321 27.2513 27.7568C27.1293 27.8814 26.9845 27.9803 26.8251 28.0478C26.6657 28.1152 26.4948 28.1499 26.3223 28.1499C26.1498 28.1499 25.9789 28.1152 25.8195 28.0478C25.6601 27.9803 25.5153 27.8814 25.3933 27.7568L21.07 23.3378L16.7467 27.7568C16.6247 27.8814 16.4799 27.9803 16.3205 28.0478C16.1611 28.1152 15.9902 28.1499 15.8177 28.1499C15.6452 28.1499 15.4743 28.1152 15.3149 28.0478C15.1555 27.9803 15.0107 27.8814 14.8887 27.7568C14.7667 27.6321 14.6699 27.4841 14.6039 27.3213C14.5379 27.1584 14.5039 26.9839 14.5039 26.8076C14.5039 26.6313 14.5379 26.4567 14.6039 26.2939C14.6699 26.131 14.7667 25.983 14.8887 25.8584L19.2136 21.4411L14.8887 17.0238C14.6423 16.7721 14.5039 16.4306 14.5039 16.0746C14.5039 15.7186 14.6423 15.3771 14.8887 15.1254C15.1351 14.8737 15.4693 14.7322 15.8177 14.7322C16.1661 14.7322 16.5003 14.8737 16.7467 15.1254L21.07 19.5444L25.3933 15.1254C25.5153 15.0007 25.6601 14.9019 25.8195 14.8344C25.9789 14.7669 26.1498 14.7322 26.3223 14.7322C26.4948 14.7322 26.6657 14.7669 26.8251 14.8344C26.9845 14.9019 27.1293 15.0007 27.2513 15.1254C27.3733 15.25 27.4701 15.398 27.5361 15.5609C27.6021 15.7238 27.6361 15.8983 27.6361 16.0746C27.6361 16.2509 27.6021 16.4254 27.5361 16.5883C27.4701 16.7512 27.3733 16.8991 27.2513 17.0238L22.9264 21.4411L27.2513 25.8584Z" fill="#FF2323"/>
</svg>
