<svg width="15" height="15" viewBox="0 0 15 15" fill="none" xmlns="http://www.w3.org/2000/svg">
<g clip-path="url(#clip0_488_2)">
<path d="M7.50645 0.00683594C7.50447 0.00683594 7.50182 0.00716698 7.49983 0.00716698C7.49752 0.00716698 7.49553 0.00683594 7.49321 0.00683594C3.35515 0.00683594 0 3.36165 0 7.50038C0 11.6384 3.35515 14.9936 7.49321 14.9936C7.49553 14.9936 7.49752 14.9936 7.49983 14.9936C7.50182 14.9936 7.50447 14.9936 7.50645 14.9936C11.6445 14.9936 14.9997 11.6384 14.9997 7.50038C15 3.36165 11.6449 0.00683594 7.50645 0.00683594ZM7.50645 12.8484C7.50447 12.8484 7.50182 12.8481 7.49983 12.8481C7.49752 12.8481 7.49553 12.8484 7.49321 12.8484C6.81589 12.8484 6.26669 12.2995 6.26669 11.6219C6.26669 10.9449 6.81589 10.396 7.49321 10.396C7.49553 10.396 7.49752 10.396 7.49983 10.396C7.50182 10.396 7.50447 10.396 7.50645 10.396C8.18344 10.396 8.73331 10.9449 8.73331 11.6219C8.73331 12.2992 8.18444 12.8484 7.50645 12.8484ZM9.2653 3.50201C9.18519 4.72589 8.62572 8.36573 8.62572 8.36573C8.62572 8.97949 8.12286 9.47672 7.5091 9.47672C7.50579 9.47672 7.50248 9.47672 7.4995 9.47672C7.49652 9.47672 7.49288 9.47672 7.4899 9.47672C6.87648 9.47672 6.37362 8.97883 6.37362 8.36573C6.37362 8.36573 5.81448 4.72589 5.73437 3.50201C5.69464 2.88925 6.16407 1.75145 7.49023 1.75145C7.49354 1.75145 7.49685 1.75178 7.49983 1.75178C7.50281 1.75178 7.50612 1.75145 7.50943 1.75145C8.83527 1.75145 9.30536 2.88925 9.2653 3.50201Z" fill="#F85050"/>
</g>
<defs>
<clipPath id="clip0_488_2">
<rect width="15" height="15" fill="white"/>
</clipPath>
</defs>
</svg>
