<svg width="40" height="40" viewBox="0 0 40 40" fill="none" xmlns="http://www.w3.org/2000/svg">
<path d="M34.8717 17.7163V31.4664C34.8717 32.0976 34.6196 32.7029 34.1708 33.1491C33.722 33.5954 33.1133 33.8461 32.4786 33.8461H26.4957C25.861 33.8461 25.2523 33.5954 24.8034 33.1491C24.3546 32.7029 24.1025 32.0976 24.1025 31.4664V25.5172C24.1025 25.2016 23.9764 24.899 23.752 24.6759C23.5276 24.4527 23.2233 24.3274 22.9059 24.3274H18.1196C17.8023 24.3274 17.4979 24.4527 17.2735 24.6759C17.0491 24.899 16.923 25.2016 16.923 25.5172V31.4664C16.923 32.0976 16.6709 32.7029 16.2221 33.1491C15.7733 33.5954 15.1646 33.8461 14.5299 33.8461H8.54697C7.91226 33.8461 7.30355 33.5954 6.85475 33.1491C6.40594 32.7029 6.15381 32.0976 6.15381 31.4664V17.7163C6.15376 17.3869 6.22246 17.0612 6.35557 16.7596C6.48868 16.458 6.68329 16.1872 6.9271 15.9642L18.8929 4.73806L18.9093 4.7217C19.3499 4.3233 19.924 4.10254 20.5195 4.10254C21.115 4.10254 21.6891 4.3233 22.1296 4.7217C22.1347 4.72752 22.1402 4.73299 22.1461 4.73806L34.1119 15.9642C34.3533 16.1884 34.5454 16.4597 34.6761 16.7612C34.8069 17.0628 34.8735 17.3879 34.8717 17.7163Z" fill="#878787"/>
</svg>
