<svg width="40" height="40" viewBox="0 0 40 40" fill="none" xmlns="http://www.w3.org/2000/svg">
<path d="M34.1922 16.4614L21.6922 4.66766C21.6861 4.66232 21.6803 4.65658 21.675 4.65047C21.2148 4.23193 20.615 4 19.993 4C19.3709 4 18.7712 4.23193 18.3109 4.65047L18.2938 4.66766L5.80781 16.4614C5.55312 16.6956 5.34982 16.9801 5.21077 17.297C5.07172 17.6138 4.99995 17.956 5 18.302V32.7473C5 33.4104 5.26339 34.0463 5.73223 34.5151C6.20107 34.9839 6.83696 35.2473 7.5 35.2473H15C15.663 35.2473 16.2989 34.9839 16.7678 34.5151C17.2366 34.0463 17.5 33.4104 17.5 32.7473V25.2473H22.5V32.7473C22.5 33.4104 22.7634 34.0463 23.2322 34.5151C23.7011 34.9839 24.337 35.2473 25 35.2473H32.5C33.163 35.2473 33.7989 34.9839 34.2678 34.5151C34.7366 34.0463 35 33.4104 35 32.7473V18.302C35.0001 17.956 34.9283 17.6138 34.7892 17.297C34.6502 16.9801 34.4469 16.6956 34.1922 16.4614ZM32.5 32.7473H25V25.2473C25 24.5843 24.7366 23.9484 24.2678 23.4796C23.7989 23.0107 23.163 22.7473 22.5 22.7473H17.5C16.837 22.7473 16.2011 23.0107 15.7322 23.4796C15.2634 23.9484 15 24.5843 15 25.2473V32.7473H7.5V18.302L7.51719 18.2864L20 6.49734L32.4844 18.2833L32.5016 18.2989L32.5 32.7473Z" fill="#B8B8B8"/>
</svg>
