<svg width="25" height="25" viewBox="0 0 25 25" fill="none" xmlns="http://www.w3.org/2000/svg">
<path d="M10.2499 23H2.91666C2.67355 23 2.44039 22.9078 2.26848 22.7438C2.09658 22.5797 2 22.3572 2 22.1252C2 21.8932 2.09658 21.6707 2.26848 21.5067C2.44039 21.3426 2.67355 21.2505 2.91666 21.2505H10.2499C10.4931 21.2505 10.7262 21.3426 10.8981 21.5067C11.07 21.6707 11.1666 21.8932 11.1666 22.1252C11.1666 22.3572 11.07 22.5797 10.8981 22.7438C10.7262 22.9078 10.4931 23 10.2499 23ZM8.41662 19.501H2.91666C2.67355 19.501 2.44039 19.4088 2.26848 19.2448C2.09658 19.0807 2 18.8582 2 18.6262C2 18.3942 2.09658 18.1717 2.26848 18.0077C2.44039 17.8436 2.67355 17.7515 2.91666 17.7515H8.41662C8.65974 17.7515 8.89289 17.8436 9.0648 18.0077C9.23671 18.1717 9.33329 18.3942 9.33329 18.6262C9.33329 18.8582 9.23671 19.0807 9.0648 19.2448C8.89289 19.4088 8.65974 19.501 8.41662 19.501ZM6.5833 16.002H2.91666C2.67355 16.002 2.44039 15.9098 2.26848 15.7457C2.09658 15.5817 2 15.3592 2 15.1272C2 14.8952 2.09658 14.6727 2.26848 14.5087C2.44039 14.3446 2.67355 14.2524 2.91666 14.2524H6.5833C6.82642 14.2524 7.05957 14.3446 7.23148 14.5087C7.40339 14.6727 7.49996 14.8952 7.49996 15.1272C7.49996 15.3592 7.40339 15.5817 7.23148 15.7457C7.05957 15.9098 6.82642 16.002 6.5833 16.002ZM13.9166 22.9606C13.6735 22.971 13.436 22.8887 13.2565 22.732C13.0769 22.5752 12.97 22.3568 12.9591 22.1248C12.9483 21.8928 13.0345 21.6662 13.1988 21.4949C13.363 21.3235 13.5919 21.2214 13.835 21.2111C15.5697 21.0597 17.2233 20.4396 18.6021 19.4236C19.9809 18.4077 21.0278 17.0378 21.6201 15.4745C22.2125 13.9112 22.3258 12.2192 21.9468 10.5967C21.5677 8.97415 20.7121 7.48827 19.48 6.31308C18.248 5.13789 16.6905 4.32204 14.9901 3.96109C13.2897 3.60015 11.5167 3.70905 9.87876 4.27504C8.24085 4.84102 6.80585 5.84067 5.74183 7.15689C4.67781 8.4731 4.02883 10.0514 3.8709 11.7069C3.86007 11.8213 3.82573 11.9326 3.76984 12.0343C3.71394 12.1361 3.6376 12.2263 3.54516 12.2999C3.45272 12.3735 3.34599 12.429 3.23108 12.4632C3.11616 12.4975 2.99531 12.5098 2.87541 12.4994C2.75551 12.4891 2.63893 12.4563 2.5323 12.403C2.42568 12.3496 2.33111 12.2768 2.25399 12.1886C2.17687 12.1004 2.11872 11.9985 2.08284 11.8889C2.04697 11.7792 2.03408 11.6639 2.04492 11.5494C2.30056 8.8581 3.63404 6.36451 5.76778 4.58776C7.90151 2.81102 10.6711 1.88801 13.5 2.01086C16.3289 2.13372 18.9992 3.29298 20.955 5.24733C22.9108 7.20168 24.0014 9.80055 23.9999 12.5029C24.0139 15.1257 22.9928 17.6575 21.1398 19.5946C19.2867 21.5317 16.7375 22.7321 13.9991 22.9571C13.9716 22.9598 13.9432 22.9606 13.9166 22.9606ZM12.9999 7.2544C12.7568 7.2544 12.5237 7.34656 12.3518 7.51061C12.1798 7.67466 12.0833 7.89715 12.0833 8.12915V12.5029C12.0833 12.7349 12.1799 12.9574 12.3518 13.1214L15.1018 15.7457C15.2747 15.905 15.5063 15.9932 15.7466 15.9912C15.987 15.9892 16.2169 15.8972 16.3868 15.735C16.5568 15.5728 16.6532 15.3534 16.6553 15.1241C16.6574 14.8947 16.565 14.6737 16.398 14.5087L13.9166 12.1408V8.12915C13.9166 7.89715 13.82 7.67466 13.6481 7.51061C13.4762 7.34656 13.243 7.2544 12.9999 7.2544Z" fill="black" fill-opacity="0.76"/>
</svg>
