<svg width="13" height="12" viewBox="0 0 13 12" fill="none" xmlns="http://www.w3.org/2000/svg">
<g clip-path="url(#clip0_373_3670)">
<path d="M6.18484 0.706543C5.11695 0.707701 4.09316 1.11388 3.33805 1.83596C2.58294 2.55805 2.15819 3.53707 2.15698 4.55825C2.15698 7.85409 5.81867 10.3433 5.97475 10.4474C6.03631 10.4887 6.10966 10.5108 6.18484 10.5108C6.26001 10.5108 6.33336 10.4887 6.39492 10.4474C6.551 10.3433 10.2127 7.85409 10.2127 4.55825C10.2115 3.53707 9.78673 2.55805 9.03162 1.83596C8.27651 1.11388 7.25272 0.707701 6.18484 0.706543ZM6.18484 3.15763C6.47452 3.15763 6.7577 3.23977 6.99857 3.39368C7.23943 3.54758 7.42716 3.76633 7.53802 4.02226C7.64888 4.27819 7.67788 4.5598 7.62137 4.8315C7.56485 5.10319 7.42535 5.35276 7.22052 5.54864C7.01568 5.74452 6.7547 5.87792 6.47058 5.93196C6.18646 5.986 5.89196 5.95827 5.62433 5.85226C5.3567 5.74625 5.12794 5.56673 4.967 5.33639C4.80606 5.10606 4.72016 4.83527 4.72016 4.55825C4.72016 4.18678 4.87448 3.83053 5.14915 3.56786C5.42383 3.30519 5.79638 3.15763 6.18484 3.15763Z" fill="#545454"/>
</g>
<defs>
<clipPath id="clip0_373_3670">
<rect width="11.7174" height="11.205" fill="white" transform="translate(0.326172 0.00634766)"/>
</clipPath>
</defs>
</svg>
