<svg width="20" height="20" viewBox="0 0 20 20" fill="none" xmlns="http://www.w3.org/2000/svg">
<path d="M2.5 2.5L17.5 17.5M14.1667 8.33333V6.66667C14.1667 4.36548 12.3012 2.5 10 2.5C9.19025 2.5 8.43442 2.73099 7.79488 3.13067M5.90319 5.90282C5.85732 6.15044 5.83333 6.40575 5.83333 6.66667V8.35733M5.83333 8.35733C5.34307 8.38725 4.99524 8.45458 4.69836 8.60583C4.22795 8.8455 3.8455 9.22792 3.60582 9.69833C3.33333 10.2332 3.33333 10.9332 3.33333 12.3333V13.5C3.33333 14.9002 3.33333 15.6002 3.60582 16.135C3.8455 16.6054 4.22795 16.9878 4.69836 17.2275C5.23313 17.5 5.9332 17.5 7.33333 17.5H12.6667C14.0668 17.5 14.7668 17.5 15.3017 17.2275C15.7152 17.0167 16.0608 16.6957 16.3012 16.3015M5.83333 8.35733C6.22618 8.33333 6.71049 8.33333 7.33333 8.33333H8.33333M16.6665 12.0019C16.6648 10.8192 16.6442 10.1892 16.3942 9.69833C16.1545 9.22792 15.7721 8.8455 15.3017 8.60583C14.8108 8.35575 14.1807 8.33517 12.9981 8.3335" stroke="black" stroke-width="2" stroke-linecap="round" stroke-linejoin="round"/>
</svg>
