<svg width="60" height="40" viewBox="0 0 60 40" fill="none" xmlns="http://www.w3.org/2000/svg">
<g clip-path="url(#clip0_287_2)">
<path d="M36.3954 33.4522H46.7561C47.1996 33.4522 47.5309 33.0763 47.4416 32.6761L42.5105 10.6511C42.4433 10.3512 42.1569 10.1359 41.8251 10.1359H36.3954C36.0088 10.1359 35.6959 10.4249 35.6959 10.7813V32.8063C35.6959 33.1626 36.0093 33.4517 36.3954 33.4517V33.4522Z" fill="#00A3D6"/>
<path d="M54.3557 8.20074H45.6614C45.2521 8.20074 44.9462 8.57822 45.0306 8.97956L49.1967 28.7766C49.2595 29.0754 49.5226 29.2891 49.8275 29.2891H54.3557C54.7114 29.2891 55 29 55 28.6437V8.84669C55 8.49036 54.7114 8.20129 54.3557 8.20129V8.20074Z" fill="#006B94"/>
<path d="M32.9309 7H24.2316C23.824 7 23.5186 7.37477 23.6004 7.77502L27.7751 28.2538C27.8363 28.5542 28.1005 28.7701 28.4064 28.7701H32.9314C33.2871 28.7701 33.5757 28.481 33.5757 28.1247V7.6454C33.5757 7.28907 33.2866 7 32.9309 7Z" fill="#00C8C6"/>
<path d="M17.5469 34H26.2462C26.6538 34 26.9592 33.6344 26.8774 33.2434L22.7027 13.2506C22.6415 12.9572 22.3773 12.7462 22.0714 12.7462H17.5464C17.1907 12.7462 16.9021 13.0282 16.9021 13.3764V33.3698C16.9021 33.718 17.1907 34 17.5464 34H17.5469Z" fill="#006B94"/>
<path d="M14.3441 8.69379H5.64486C5.23718 8.69379 4.93183 9.06855 5.01358 9.46881L9.18832 29.9475C9.2495 30.248 9.51371 30.4639 9.8196 30.4639H14.3446C14.7003 30.4639 14.9889 30.1748 14.9889 29.8185V9.33919C14.9889 8.98286 14.7003 8.69379 14.3446 8.69379H14.3441Z" fill="#00A4D2"/>
</g>
<defs>
<clipPath id="clip0_287_2">
<rect width="50" height="27" fill="white" transform="matrix(-1 0 0 1 55 7)"/>
</clipPath>
</defs>
</svg>
