<svg width="40" height="40" viewBox="0 0 40 40" fill="none" xmlns="http://www.w3.org/2000/svg">
<path d="M35.8359 35.3601C35.7278 35.5547 35.5724 35.7163 35.3852 35.8286C35.1981 35.9409 34.9858 36 34.7697 36H5.22957C5.01362 35.9998 4.80153 35.9405 4.6146 35.828C4.42766 35.7156 4.27246 35.554 4.16459 35.3595C4.05671 35.165 3.99994 34.9444 4 34.7198C4.00006 34.4953 4.05693 34.2747 4.1649 34.0803C6.50811 29.868 10.1191 26.8476 14.3331 25.4158C12.2487 24.1255 10.6292 22.1594 9.72334 19.8195C8.81751 17.4795 8.67543 14.895 9.31894 12.463C9.96244 10.0309 11.3559 7.88573 13.2854 6.35687C15.2149 4.82801 17.5737 4 19.9996 4C22.4255 4 24.7843 4.82801 26.7138 6.35687C28.6433 7.88573 30.0368 10.0309 30.6803 12.463C31.3238 14.895 31.1817 17.4795 30.2759 19.8195C29.3701 22.1594 27.7506 24.1255 25.6661 25.4158C29.8802 26.8476 33.4911 29.868 35.8343 34.0803C35.9426 34.2747 35.9997 34.4953 36 34.72C36.0003 34.9446 35.9437 35.1654 35.8359 35.3601Z" fill="#878787"/>
</svg>
