<svg width="40" height="40" viewBox="0 0 40 40" fill="none" xmlns="http://www.w3.org/2000/svg">
<path d="M36.0813 33.125C33.7016 29.0109 30.0344 26.0609 25.7547 24.6625C27.8717 23.4023 29.5164 21.482 30.4363 19.1965C31.3563 16.9111 31.5005 14.3869 30.847 12.0115C30.1935 9.63609 28.7783 7.54091 26.8188 6.04767C24.8592 4.55444 22.4637 3.74573 20.0001 3.74573C17.5364 3.74573 15.1409 4.55444 13.1813 6.04767C11.2218 7.54091 9.80661 9.63609 9.15309 12.0115C8.49957 14.3869 8.64385 16.9111 9.56379 19.1965C10.4837 21.482 12.1284 23.4023 14.2454 24.6625C9.96568 26.0594 6.29849 29.0094 3.91881 33.125C3.83154 33.2673 3.77366 33.4256 3.74857 33.5906C3.72349 33.7557 3.73171 33.924 3.77275 34.0858C3.81379 34.2476 3.88683 34.3996 3.98754 34.5327C4.08826 34.6658 4.21462 34.7774 4.35916 34.8609C4.5037 34.9444 4.6635 34.9981 4.82913 35.0188C4.99476 35.0395 5.16287 35.0269 5.32353 34.9816C5.48419 34.9363 5.63415 34.8593 5.76457 34.7551C5.89499 34.6509 6.00321 34.5217 6.08287 34.375C9.02662 29.2875 14.2297 26.25 20.0001 26.25C25.7704 26.25 30.9735 29.2875 33.9172 34.375C33.9969 34.5217 34.1051 34.6509 34.2355 34.7551C34.366 34.8593 34.5159 34.9363 34.6766 34.9816C34.8372 35.0269 35.0054 35.0395 35.171 35.0188C35.3366 34.9981 35.4964 34.9444 35.641 34.8609C35.7855 34.7774 35.9119 34.6658 36.0126 34.5327C36.1133 34.3996 36.1863 34.2476 36.2274 34.0858C36.2684 33.924 36.2766 33.7557 36.2515 33.5906C36.2265 33.4256 36.1686 33.2673 36.0813 33.125ZM11.2501 15C11.2501 13.2694 11.7632 11.5777 12.7247 10.1387C13.6862 8.69981 15.0527 7.5783 16.6516 6.91603C18.2504 6.25377 20.0098 6.08049 21.7071 6.41811C23.4044 6.75573 24.9635 7.58908 26.1872 8.81279C27.4109 10.0365 28.2443 11.5956 28.5819 13.2929C28.9195 14.9903 28.7463 16.7496 28.084 18.3485C27.4217 19.9473 26.3002 21.3139 24.8613 22.2753C23.4224 23.2368 21.7306 23.75 20.0001 23.75C17.6802 23.7475 15.456 22.8248 13.8156 21.1844C12.1752 19.544 11.2525 17.3199 11.2501 15Z" fill="#B7B7B7"/>
</svg>
