<svg width="63" height="63" viewBox="0 0 63 63" fill="none" xmlns="http://www.w3.org/2000/svg">
<path d="M31.4988 44.625C32.1121 44.625 32.6266 44.4176 33.0422 44.0027C33.4578 43.5879 33.6656 43.0738 33.6656 42.4606C33.6656 41.8473 33.4582 41.3328 33.0434 40.9172C32.6285 40.5016 32.1144 40.2937 31.5012 40.2937C30.8879 40.2937 30.3734 40.5012 29.9578 40.916C29.5422 41.3309 29.3344 41.8449 29.3344 42.4582C29.3344 43.0715 29.5418 43.5859 29.9566 44.0016C30.3715 44.4172 30.8856 44.625 31.4988 44.625ZM29.7281 34.5844H33.6656V17.9812H29.7281V34.5844ZM31.5175 57.75C27.8978 57.75 24.4963 57.0609 21.3128 55.6828C18.1293 54.3047 15.3453 52.4234 12.9609 50.0391C10.5766 47.6547 8.69531 44.8691 7.31719 41.6823C5.93906 38.4956 5.25 35.0905 5.25 31.4672C5.25 27.8439 5.93906 24.4388 7.31719 21.2521C8.69531 18.0653 10.5766 15.2906 12.9609 12.9281C15.3453 10.5656 18.1309 8.69531 21.3177 7.31719C24.5044 5.93906 27.9095 5.25 31.5328 5.25C35.1561 5.25 38.5612 5.93906 41.7479 7.31719C44.9347 8.69531 47.7094 10.5656 50.0719 12.9281C52.4344 15.2906 54.3047 18.0687 55.6828 21.2625C57.0609 24.4562 57.75 27.8629 57.75 31.4825C57.75 35.1022 57.0609 38.5037 55.6828 41.6872C54.3047 44.8707 52.4344 47.6507 50.0719 50.027C47.7094 52.4033 44.9312 54.2846 41.7375 55.6707C38.5437 57.0569 35.1371 57.75 31.5175 57.75Z" fill="#ADADAD"/>
</svg>
