<svg width="25" height="25" viewBox="0 0 25 25" fill="none" xmlns="http://www.w3.org/2000/svg">
<rect width="25" height="25" rx="5" fill="#ECECEC"/>
<path d="M18.097 16.903C18.1756 16.9814 18.238 17.0746 18.2806 17.1771C18.3232 17.2797 18.3451 17.3897 18.3451 17.5007C18.3451 17.6118 18.3232 17.7217 18.2806 17.8243C18.238 17.9268 18.1756 18.02 18.097 18.0984C18.0175 18.1771 16.1282 20.0327 13 20.0327C10.6298 20.0327 8.82695 18.805 7.65625 17.6519V18.625C7.65625 18.8488 7.56736 19.0634 7.40912 19.2216C7.25089 19.3799 7.03628 19.4687 6.8125 19.4687C6.58872 19.4687 6.37411 19.3799 6.21588 19.2216C6.05764 19.0634 5.96875 18.8488 5.96875 18.625V15.25C5.96875 15.0262 6.05764 14.8116 6.21588 14.6534C6.37411 14.4951 6.58872 14.4062 6.8125 14.4062H10.1875C10.4113 14.4062 10.6259 14.4951 10.7841 14.6534C10.9424 14.8116 11.0312 15.0262 11.0312 15.25C11.0312 15.4738 10.9424 15.6884 10.7841 15.8466C10.6259 16.0049 10.4113 16.0937 10.1875 16.0937H8.50844C9.42953 17.1006 10.975 18.3437 13 18.3437C15.4349 18.3437 16.889 16.9178 16.903 16.903C16.9814 16.8246 17.0745 16.7624 17.1769 16.7199C17.2793 16.6774 17.3891 16.6556 17.5 16.6556C17.6109 16.6556 17.7207 16.6774 17.8231 16.7199C17.9255 16.7624 18.0186 16.8246 18.097 16.903ZM19.1875 6.53125C18.9637 6.53125 18.7491 6.62014 18.5909 6.77838C18.4326 6.93661 18.3438 7.15122 18.3438 7.375V8.34953C17.173 7.19641 15.3702 5.96875 13 5.96875C9.87391 5.96875 7.9825 7.8243 7.90305 7.90305C7.74454 8.06155 7.65549 8.27654 7.65549 8.5007C7.65549 8.72487 7.74454 8.93985 7.90305 9.09836C8.06156 9.25687 8.27654 9.34592 8.5007 9.34592C8.72487 9.34592 8.93985 9.25687 9.09836 9.09836C9.11102 9.08219 10.5651 7.65625 13 7.65625C15.025 7.65625 16.5705 8.89937 17.4916 9.90625H15.8125C15.5887 9.90625 15.3741 9.99514 15.2159 10.1534C15.0576 10.3116 14.9688 10.5262 14.9688 10.75C14.9688 10.9738 15.0576 11.1884 15.2159 11.3466C15.3741 11.5049 15.5887 11.5937 15.8125 11.5937H19.1875C19.4113 11.5937 19.6259 11.5049 19.7841 11.3466C19.9424 11.1884 20.0312 10.9738 20.0312 10.75V7.375C20.0312 7.15122 19.9424 6.93661 19.7841 6.77838C19.6259 6.62014 19.4113 6.53125 19.1875 6.53125Z" fill="#4B4B4B"/>
</svg>
