<svg width="14" height="14" viewBox="0 0 14 14" fill="none" xmlns="http://www.w3.org/2000/svg">
<path d="M13.3438 3.06245V5.68745C13.3438 5.86149 13.2747 6.02841 13.1516 6.15148C13.0285 6.27456 12.8616 6.3437 12.6875 6.3437H10.0625C9.8885 6.3437 9.72158 6.27456 9.59851 6.15148C9.47544 6.02841 9.40629 5.86149 9.40629 5.68745C9.40629 5.5134 9.47544 5.34648 9.59851 5.22341C9.72158 5.10034 9.8885 5.0312 10.0625 5.0312H10.9977L9.95864 4.08073C9.95153 4.07416 9.94442 4.0676 9.93786 4.06049C9.45607 3.579 8.86333 3.2233 8.21179 3.02468C7.56025 2.82606 6.86988 2.79061 6.20143 2.92146C5.53297 3.05231 4.90692 3.34544 4.37836 3.77505C3.84979 4.20467 3.43491 4.75761 3.17023 5.38522C2.90554 6.01284 2.79916 6.69588 2.86045 7.37426C2.92173 8.05264 3.14881 8.70555 3.52168 9.27557C3.89456 9.84558 4.40182 10.3152 4.99882 10.6431C5.59583 10.9711 6.26427 11.1473 6.94536 11.1562H7.00004C8.06094 11.1588 9.08214 10.753 9.852 10.0231C9.97855 9.90348 10.1474 9.83907 10.3215 9.84399C10.4955 9.84891 10.6605 9.92277 10.78 10.0493C10.8996 10.1759 10.964 10.3447 10.9591 10.5188C10.9542 10.6928 10.8803 10.8578 10.7538 10.9774C9.74037 11.9379 8.39634 12.4719 7.00004 12.4687H6.92512C6.02991 12.4561 5.1515 12.2239 4.367 11.7925C3.5825 11.361 2.91591 10.7436 2.42577 9.99441C1.93563 9.24519 1.63693 8.3871 1.5559 7.49548C1.47486 6.60386 1.61397 5.70598 1.96101 4.88068C2.30804 4.05537 2.8524 3.3279 3.54627 2.76212C4.24014 2.19635 5.0623 1.80958 5.94056 1.63577C6.81883 1.46197 7.72633 1.50645 8.58339 1.76531C9.44045 2.02417 10.2208 2.48949 10.8561 3.12041L12.0313 4.19557V3.06245C12.0313 2.8884 12.1004 2.72148 12.2235 2.59841C12.3466 2.47534 12.5135 2.4062 12.6875 2.4062C12.8616 2.4062 13.0285 2.47534 13.1516 2.59841C13.2747 2.72148 13.3438 2.8884 13.3438 3.06245Z" fill="#000000"/>
</svg>
