<svg width="24" height="24" viewBox="0 0 24 24" fill="none" xmlns="http://www.w3.org/2000/svg">
<path d="M20.8104 12.286C20.8106 14.6228 19.8905 16.8656 18.2494 18.529C16.6082 20.1925 14.378 21.1427 12.0415 21.174H11.9224C9.65333 21.1788 7.46945 20.3103 5.82343 18.7485C5.61776 18.5542 5.49768 18.2862 5.48959 18.0035C5.48151 17.7207 5.58609 17.4463 5.78033 17.2406C5.97456 17.0349 6.24255 16.9149 6.52532 16.9068C6.8081 16.8987 7.0825 17.0033 7.28817 17.1975C8.25362 18.109 9.46628 18.7157 10.7746 18.9419C12.0829 19.1681 13.4289 19.0037 14.6443 18.4692C15.8597 17.9348 16.8907 17.054 17.6084 15.9369C18.326 14.8199 18.6986 13.5161 18.6795 12.1885C18.6604 10.8609 18.2504 9.56835 17.5009 8.47243C16.7513 7.3765 15.6954 6.52577 14.4651 6.02655C13.2348 5.52733 11.8847 5.40175 10.5834 5.66552C9.28211 5.92929 8.08743 6.5707 7.14863 7.5096C7.13708 7.52115 7.12641 7.53182 7.11397 7.54248L5.42436 9.08633H6.9451C7.22797 9.08633 7.49925 9.1987 7.69927 9.39872C7.89929 9.59873 8.01166 9.87002 8.01166 10.1529C8.01166 10.4358 7.89929 10.707 7.69927 10.9071C7.49925 11.1071 7.22797 11.2194 6.9451 11.2194H2.67886C2.39599 11.2194 2.12471 11.1071 1.92469 10.9071C1.72467 10.707 1.6123 10.4358 1.6123 10.1529V5.88665C1.6123 5.60378 1.72467 5.3325 1.92469 5.13248C2.12471 4.93246 2.39599 4.82009 2.67886 4.82009C2.96173 4.82009 3.23302 4.93246 3.43303 5.13248C3.63305 5.3325 3.74542 5.60378 3.74542 5.88665V7.72824L5.65456 5.98087C6.89968 4.74244 8.48376 3.90062 10.2069 3.56166C11.93 3.22271 13.7149 3.4018 15.3363 4.07635C16.9577 4.75089 18.343 5.89065 19.3172 7.35177C20.2915 8.81289 20.811 10.5299 20.8104 12.286Z" fill="#484848"/>
</svg>
