<svg width="25" height="25" viewBox="0 0 25 25" fill="none" xmlns="http://www.w3.org/2000/svg">
<path d="M18.0167 13.3292L10.2042 21.1417C9.98403 21.3618 9.68544 21.4855 9.3741 21.4855C9.06276 21.4855 8.76417 21.3618 8.54402 21.1417C8.32387 20.9215 8.2002 20.6229 8.2002 20.3116C8.2002 20.0003 8.32387 19.7017 8.54402 19.4815L15.5274 12.5001L8.54598 5.51668C8.43697 5.40767 8.3505 5.27826 8.29151 5.13584C8.23251 4.99341 8.20215 4.84076 8.20215 4.6866C8.20215 4.53244 8.23251 4.37979 8.29151 4.23737C8.3505 4.09494 8.43697 3.96553 8.54598 3.85653C8.65499 3.74752 8.7844 3.66105 8.92682 3.60205C9.06925 3.54306 9.2219 3.5127 9.37606 3.5127C9.53022 3.5127 9.68287 3.54306 9.82529 3.60205C9.96772 3.66105 10.0971 3.74752 10.2061 3.85653L18.0186 11.669C18.1278 11.778 18.2143 11.9075 18.2733 12.05C18.3322 12.1925 18.3625 12.3453 18.3623 12.4995C18.3621 12.6537 18.3315 12.8064 18.2722 12.9488C18.2129 13.0912 18.1261 13.2204 18.0167 13.3292Z" fill="#B1B1B1"/>
</svg>
