<svg width="42" height="42" viewBox="0 0 42 42" fill="none" xmlns="http://www.w3.org/2000/svg">
<path d="M21 3.9375C17.6254 3.9375 14.3265 4.9382 11.5206 6.81305C8.71468 8.6879 6.52773 11.3527 5.23631 14.4705C3.94489 17.5882 3.607 21.0189 4.26536 24.3287C4.92372 27.6385 6.54876 30.6788 8.935 33.065C11.3212 35.4512 14.3615 37.0763 17.6713 37.7346C20.9811 38.393 24.4118 38.0551 27.5295 36.7637C30.6473 35.4723 33.3121 33.2853 35.187 30.4794C37.0618 27.6735 38.0625 24.3746 38.0625 21C38.0577 16.4762 36.2585 12.1391 33.0597 8.94027C29.8609 5.74146 25.5238 3.94228 21 3.9375ZM28.4911 17.9911L19.3036 27.1786C19.1817 27.3006 19.037 27.3974 18.8776 27.4635C18.7183 27.5295 18.5475 27.5635 18.375 27.5635C18.2025 27.5635 18.0317 27.5295 17.8724 27.4635C17.7131 27.3974 17.5683 27.3006 17.4464 27.1786L13.5089 23.2411C13.2626 22.9948 13.1243 22.6608 13.1243 22.3125C13.1243 21.9642 13.2626 21.6302 13.5089 21.3839C13.7552 21.1376 14.0892 20.9993 14.4375 20.9993C14.7858 20.9993 15.1198 21.1376 15.3661 21.3839L18.375 24.3945L26.6339 16.1339C26.7559 16.012 26.9006 15.9152 27.06 15.8492C27.2193 15.7832 27.3901 15.7493 27.5625 15.7493C27.735 15.7493 27.9057 15.7832 28.0651 15.8492C28.2244 15.9152 28.3692 16.012 28.4911 16.1339C28.613 16.2559 28.7098 16.4006 28.7758 16.5599C28.8418 16.7193 28.8757 16.89 28.8757 17.0625C28.8757 17.235 28.8418 17.4057 28.7758 17.5651C28.7098 17.7244 28.613 17.8691 28.4911 17.9911Z" fill="#75CD2F"/>
</svg>
