<svg width="119" height="36" viewBox="0 0 119 36" fill="none" xmlns="http://www.w3.org/2000/svg">
<rect x="1.65" y="1.65" width="116.695" height="33.6999" rx="3.35" stroke="#FA5C5C" stroke-width="1.3"/>
<line y1="-0.65" x2="15.5561" y2="-0.65" transform="matrix(0.661466 -0.749976 0.853803 0.520596 1.93555 13.4434)" stroke="#FA5C5C" stroke-width="1.3"/>
<path d="M1.93555 20.8325L18.3534 1.15423" stroke="#FA5C5C" stroke-width="1.3"/>
<line y1="-0.65" x2="35.714" y2="-0.65" transform="matrix(0.63625 -0.771483 0.868724 0.495297 1.93555 29.999)" stroke="#FA5C5C" stroke-width="1.3"/>
<line y1="-0.65" x2="43.2133" y2="-0.65" transform="matrix(0.649409 -0.76044 0.861124 0.508395 3.87207 34.6377)" stroke="#FA5C5C" stroke-width="1.3"/>
<line y1="-0.65" x2="44.8562" y2="-0.65" transform="matrix(0.646478 -0.762932 0.862851 0.505459 8.54883 35.999)" stroke="#FA5C5C" stroke-width="1.3"/>
<line y1="-0.65" x2="44.2572" y2="-0.65" transform="matrix(0.634091 -0.773258 0.869933 0.493169 16.0981 35.999)" stroke="#FA5C5C" stroke-width="1.3"/>
<line y1="-0.65" x2="44.2572" y2="-0.65" transform="matrix(0.634091 -0.773258 0.869933 0.493169 22.646 35.999)" stroke="#FA5C5C" stroke-width="1.3"/>
<line y1="-0.65" x2="44.8562" y2="-0.65" transform="matrix(0.646478 -0.762932 0.862851 0.505459 29.0269 35.999)" stroke="#FA5C5C" stroke-width="1.3"/>
<line y1="-0.65" x2="44.2572" y2="-0.65" transform="matrix(0.634091 -0.773258 0.869933 0.493169 36.5762 35.999)" stroke="#FA5C5C" stroke-width="1.3"/>
<line y1="-0.65" x2="44.2572" y2="-0.65" transform="matrix(0.634091 -0.773258 0.869933 0.493169 43.124 35.999)" stroke="#FA5C5C" stroke-width="1.3"/>
<line y1="-0.65" x2="44.8562" y2="-0.65" transform="matrix(0.646478 -0.762932 0.862851 0.505459 49.0464 35.999)" stroke="#FA5C5C" stroke-width="1.3"/>
<line y1="-0.65" x2="44.2572" y2="-0.65" transform="matrix(0.634091 -0.773258 0.869933 0.493169 55.5947 35.999)" stroke="#FA5C5C" stroke-width="1.3"/>
<line y1="-0.65" x2="44.2572" y2="-0.65" transform="matrix(0.634091 -0.773258 0.869933 0.493169 62.0591 35.999)" stroke="#FA5C5C" stroke-width="1.3"/>
<line y1="-0.65" x2="44.2572" y2="-0.65" transform="matrix(0.634091 -0.773258 0.869933 0.493169 68.6069 35.999)" stroke="#FA5C5C" stroke-width="1.3"/>
<line y1="-0.65" x2="44.8562" y2="-0.65" transform="matrix(0.646478 -0.762932 0.862851 0.505459 74.9878 35.999)" stroke="#FA5C5C" stroke-width="1.3"/>
<line y1="-0.65" x2="44.2572" y2="-0.65" transform="matrix(0.634091 -0.773258 0.869933 0.493169 81.5361 35.999)" stroke="#FA5C5C" stroke-width="1.3"/>
<line y1="-0.65" x2="44.2572" y2="-0.65" transform="matrix(0.634091 -0.773258 0.869933 0.493169 88.084 35.999)" stroke="#FA5C5C" stroke-width="1.3"/>
<line y1="-0.65" x2="37.0149" y2="-0.65" transform="matrix(0.646478 -0.762932 0.862851 0.505459 95.0073 35.999)" stroke="#FA5C5C" stroke-width="1.3"/>
<line y1="-0.65" x2="27.5107" y2="-0.65" transform="matrix(0.634091 -0.773258 0.869933 0.493169 101.556 35.999)" stroke="#FA5C5C" stroke-width="1.3"/>
<line y1="-0.65" x2="17.1066" y2="-0.65" transform="matrix(0.634091 -0.773258 0.869933 0.493169 108.104 35.999)" stroke="#FA5C5C" stroke-width="1.3"/>
</svg>
