<svg width="89" height="35" viewBox="0 0 89 35" fill="none" xmlns="http://www.w3.org/2000/svg">
<rect x="1.65" y="0.649023" width="86.6751" height="33.6999" rx="3.35" stroke="#FA5C5C" stroke-width="1.3"/>
<line y1="-0.65" x2="15.5545" y2="-0.65" transform="matrix(0.661379 -0.750052 0.85375 0.520684 1.93506 12.4434)" stroke="#FA5C5C" stroke-width="1.3"/>
<path d="M1.93506 19.8325L17.8338 0.776963" stroke="#FA5C5C" stroke-width="1.3"/>
<line y1="-0.65" x2="36.0107" y2="-0.65" transform="matrix(0.636163 -0.771555 0.868674 0.495384 1.93506 29)" stroke="#FA5C5C" stroke-width="1.3"/>
<line y1="-0.65" x2="43.6135" y2="-0.65" transform="matrix(0.649322 -0.760514 0.861072 0.508483 3.87109 34.6377)" stroke="#FA5C5C" stroke-width="1.3"/>
<line y1="-0.65" x2="44.8518" y2="-0.65" transform="matrix(0.646391 -0.763006 0.8628 0.505546 10.5483 34.999)" stroke="#FA5C5C" stroke-width="1.3"/>
<line y1="-0.65" x2="44.2531" y2="-0.65" transform="matrix(0.634004 -0.77333 0.869884 0.493256 17.0952 34.999)" stroke="#FA5C5C" stroke-width="1.3"/>
<line y1="-0.65" x2="44.2531" y2="-0.65" transform="matrix(0.634004 -0.77333 0.869884 0.493256 23.6416 34.999)" stroke="#FA5C5C" stroke-width="1.3"/>
<line y1="-0.65" x2="44.8518" y2="-0.65" transform="matrix(0.646391 -0.763006 0.8628 0.505546 30.0215 34.999)" stroke="#FA5C5C" stroke-width="1.3"/>
<line y1="-0.65" x2="44.2531" y2="-0.65" transform="matrix(0.634004 -0.77333 0.869884 0.493256 36.5684 34.999)" stroke="#FA5C5C" stroke-width="1.3"/>
<line y1="-0.65" x2="44.2531" y2="-0.65" transform="matrix(0.634004 -0.77333 0.869884 0.493256 43.1143 34.999)" stroke="#FA5C5C" stroke-width="1.3"/>
<line y1="-0.65" x2="44.8518" y2="-0.65" transform="matrix(0.646391 -0.763006 0.8628 0.505546 49.0352 34.999)" stroke="#FA5C5C" stroke-width="1.3"/>
<line y1="-0.65" x2="44.2531" y2="-0.65" transform="matrix(0.634004 -0.77333 0.869884 0.493256 56.583 34.999)" stroke="#FA5C5C" stroke-width="1.3"/>
<line y1="-0.65" x2="40.912" y2="-0.65" transform="matrix(0.632353 -0.77468 0.775136 0.631795 63.1294 34.999)" stroke="#FA5C5C" stroke-width="1.3"/>
<line y1="-0.65" x2="31.2393" y2="-0.65" transform="matrix(0.635031 -0.772486 0.772944 0.634474 69.0498 34.999)" stroke="#FA5C5C" stroke-width="1.3"/>
<line y1="-0.65" x2="20.0063" y2="-0.65" transform="matrix(0.655028 -0.755605 0.756081 0.654478 75.5967 34.999)" stroke="#FA5C5C" stroke-width="1.3"/>
<line y1="-0.65" x2="10.5031" y2="-0.65" transform="matrix(0.637323 -0.770597 0.771057 0.636766 82.1431 34.999)" stroke="#FA5C5C" stroke-width="1.3"/>
</svg>
