<svg width="29" height="36" viewBox="0 0 29 36" fill="none" xmlns="http://www.w3.org/2000/svg">
<rect x="1.65" y="1.65" width="26.7" height="33.7" rx="3.35" stroke="#7267E7" stroke-width="1.3"/>
<line y1="-0.65" x2="16.32" y2="-0.65" transform="matrix(0.586193 -0.810172 0.769256 0.638941 1.93359 15.0005)" stroke="#7267E7" stroke-width="1.3"/>
<line y1="-0.65" x2="24.9601" y2="-0.65" transform="matrix(0.598289 -0.80128 0.759257 0.650791 1.93359 21.9995)" stroke="#7267E7" stroke-width="1.3"/>
<line y1="-0.65" x2="34.3452" y2="-0.65" transform="matrix(0.60974 -0.792601 0.749555 0.661942 1.93359 29)" stroke="#7267E7" stroke-width="1.3"/>
<line y1="-0.65" x2="40.9052" y2="-0.65" transform="matrix(0.620336 -0.784336 0.848029 0.529949 2.75 34.6392)" stroke="#7267E7" stroke-width="1.3"/>
<line y1="-0.65" x2="33.921" y2="-0.65" transform="matrix(0.619085 -0.785324 0.848808 0.528701 8 35.417)" stroke="#7267E7" stroke-width="1.3"/>
<line y1="-0.65" x2="24.6365" y2="-0.65" transform="matrix(0.60378 -0.797151 0.858074 0.513525 14.125 35.417)" stroke="#7267E7" stroke-width="1.3"/>
<line y1="-0.65" x2="14.7394" y2="-0.65" transform="matrix(0.593647 -0.804725 0.863949 0.503579 20.25 35.417)" stroke="#7267E7" stroke-width="1.3"/>
</svg>
