<svg width="59" height="36" viewBox="0 0 59 36" fill="none" xmlns="http://www.w3.org/2000/svg">
<rect x="1.65" y="0.65" width="56.641" height="33.6999" rx="3.35" stroke="#7267E7" stroke-width="1.3"/>
<path d="M32.4227 34.7485L58.0414 2.62359" stroke="#7267E7" stroke-width="1.3"/>
<line y1="-0.65" x2="32.2825" y2="-0.65" transform="matrix(0.636869 -0.770972 0.867961 0.496632 38.3813 35)" stroke="#7267E7" stroke-width="1.3"/>
<line y1="-0.65" x2="22.12" y2="-0.65" transform="matrix(0.633725 -0.773559 0.869729 0.49353 44.9229 35)" stroke="#7267E7" stroke-width="1.3"/>
<line y1="-0.65" x2="11.9585" y2="-0.65" transform="matrix(0.625184 -0.780477 0.874422 0.485167 51.4648 35)" stroke="#7267E7" stroke-width="1.3"/>
<line y1="-0.65" x2="15.5495" y2="-0.65" transform="matrix(0.661106 -0.750293 0.85358 0.520963 1.93457 12.4443)" stroke="#7267E7" stroke-width="1.3"/>
<path d="M1.93457 19.8335L17.8216 0.777939" stroke="#7267E7" stroke-width="1.3"/>
<line y1="-0.65" x2="35.2718" y2="-0.65" transform="matrix(0.635884 -0.771784 0.868517 0.495659 1.93457 28)" stroke="#7267E7" stroke-width="1.3"/>
<line y1="-0.65" x2="43.1957" y2="-0.65" transform="matrix(0.649045 -0.76075 0.860909 0.50876 2.86914 33.6387)" stroke="#7267E7" stroke-width="1.3"/>
<line y1="-0.65" x2="44.838" y2="-0.65" transform="matrix(0.646114 -0.763241 0.862637 0.505823 7.5415 35)" stroke="#7267E7" stroke-width="1.3"/>
<line y1="-0.65" x2="44.24" y2="-0.65" transform="matrix(0.633725 -0.773559 0.869729 0.49353 14.0835 35)" stroke="#7267E7" stroke-width="1.3"/>
<line y1="-0.65" x2="44.24" y2="-0.65" transform="matrix(0.633725 -0.773559 0.869729 0.49353 20.625 35)" stroke="#7267E7" stroke-width="1.3"/>
<line y1="-0.65" x2="43.6537" y2="-0.65" transform="matrix(0.620827 -0.783947 0.876757 0.480934 27.167 35)" stroke="#7267E7" stroke-width="1.3"/>
</svg>
