<svg width="41" height="41" viewBox="0 0 41 41" fill="none" xmlns="http://www.w3.org/2000/svg">
<path d="M20.9555 8.2002C18.4327 8.2002 15.9665 8.9483 13.8689 10.3499C11.7713 11.7515 10.1364 13.7436 9.17092 16.0744C8.20548 18.4052 7.95288 20.9699 8.44505 23.4442C8.93723 25.9186 10.1521 28.1914 11.936 29.9753C13.7199 31.7592 15.9927 32.974 18.467 33.4662C20.9414 33.9584 23.5061 33.7058 25.8368 32.7403C28.1676 31.7749 30.1598 30.14 31.5614 28.0424C32.963 25.9447 33.7111 23.4786 33.7111 20.9557C33.7073 17.5739 32.3622 14.3317 29.9709 11.9404C27.5796 9.54904 24.3373 8.20395 20.9555 8.2002ZM20.9555 30.8767C18.9933 30.8767 17.0752 30.2949 15.4437 29.2047C13.8122 28.1146 12.5406 26.5652 11.7897 24.7523C11.0388 22.9395 10.8423 20.9447 11.2252 19.0203C11.608 17.0958 12.5528 15.328 13.9403 13.9406C15.3278 12.5531 17.0955 11.6082 19.02 11.2254C20.9445 10.8426 22.9393 11.0391 24.7521 11.79C26.5649 12.5408 28.1144 13.8124 29.2045 15.4439C30.2946 17.0754 30.8765 18.9936 30.8765 20.9557C30.8737 23.5861 29.8275 26.1079 27.9676 27.9678C26.1077 29.8278 23.5859 30.8739 20.9555 30.8767ZM28.9868 20.9557C28.9868 21.3316 28.8375 21.6921 28.5717 21.9579C28.3059 22.2237 27.9454 22.373 27.5695 22.373H20.9555C20.5796 22.373 20.2191 22.2237 19.9533 21.9579C19.6875 21.6921 19.5382 21.3316 19.5382 20.9557V14.3418C19.5382 13.9659 19.6875 13.6054 19.9533 13.3396C20.2191 13.0738 20.5796 12.9245 20.9555 12.9245C21.3314 12.9245 21.6919 13.0738 21.9577 13.3396C22.2235 13.6054 22.3728 13.9659 22.3728 14.3418V19.5385H27.5695C27.9454 19.5385 28.3059 19.6878 28.5717 19.9536C28.8375 20.2194 28.9868 20.5799 28.9868 20.9557Z" fill="#BDBDBD"/>
</svg>
