<svg width="25" height="25" viewBox="0 0 25 25" fill="none" xmlns="http://www.w3.org/2000/svg">
<path d="M13.8165 8.34562L21.629 16.1581C21.8491 16.3783 21.9728 16.6769 21.9728 16.9882C21.9728 17.2995 21.8491 17.5981 21.629 17.8183C21.4088 18.0384 21.1102 18.1621 20.7989 18.1621C20.4876 18.1621 20.189 18.0384 19.9688 17.8183L12.9874 10.8349L6.00399 17.8163C5.89498 17.9253 5.76557 18.0118 5.62314 18.0708C5.48072 18.1298 5.32807 18.1602 5.17391 18.1602C5.01975 18.1602 4.8671 18.1298 4.72467 18.0708C4.58225 18.0118 4.45284 17.9253 4.34383 17.8163C4.23482 17.7073 4.14835 17.5779 4.08936 17.4355C4.03036 17.2931 4 17.1404 4 16.9862C4 16.8321 4.03036 16.6794 4.08936 16.537C4.14835 16.3946 4.23482 16.2652 4.34383 16.1562L12.1563 8.34367C12.2653 8.23455 12.3948 8.14802 12.5373 8.08904C12.6798 8.03006 12.8326 7.99979 12.9868 7.99997C13.141 8.00016 13.2937 8.03078 13.4361 8.0901C13.5785 8.14941 13.7077 8.23625 13.8165 8.34562Z" fill="#B1B1B1"/>
</svg>
