<svg width="13" height="13" viewBox="0 0 13 13" fill="none" xmlns="http://www.w3.org/2000/svg">
<path d="M8.75391 5.91553C8.75391 6.34045 8.6279 6.75583 8.39183 7.10914C8.15576 7.46244 7.82022 7.73781 7.42764 7.90043C7.03507 8.06304 6.60309 8.10558 6.18633 8.02268C5.76958 7.93979 5.38676 7.73517 5.0863 7.4347C4.78583 7.13424 4.58121 6.75142 4.49832 6.33467C4.41542 5.91791 4.45796 5.48593 4.62057 5.09336C4.78318 4.70078 5.05855 4.36524 5.41186 4.12917C5.76517 3.89309 6.18055 3.76709 6.60547 3.76709C7.17507 3.76774 7.72116 3.9943 8.12393 4.39707C8.5267 4.79984 8.75326 5.34592 8.75391 5.91553ZM11.6836 6.30615C11.6836 7.31051 11.3858 8.29231 10.8278 9.12741C10.2698 9.9625 9.47669 10.6134 8.54879 10.9977C7.62088 11.3821 6.59984 11.4826 5.61478 11.2867C4.62972 11.0908 3.72488 10.6071 3.01469 9.89693C2.30451 9.18674 1.82086 8.28191 1.62492 7.29685C1.42898 6.31179 1.52954 5.29074 1.9139 4.36284C2.29825 3.43493 2.94912 2.64184 3.78422 2.08385C4.61931 1.52585 5.60111 1.22803 6.60547 1.22803C7.95184 1.22945 9.24265 1.76492 10.1947 2.71695C11.1467 3.66897 11.6822 4.95979 11.6836 6.30615ZM10.9023 6.30615C10.9017 5.7278 10.7845 5.15551 10.5576 4.62352C10.3307 4.09152 9.99889 3.61074 9.58194 3.20993C9.16499 2.80912 8.6715 2.49651 8.13097 2.2908C7.59043 2.08509 7.01396 1.9905 6.43604 2.0127C4.13623 2.10156 2.30225 4.01709 2.3086 6.31836C2.3108 7.36598 2.69718 8.3764 3.39453 9.1582C3.67853 8.74629 4.03928 8.393 4.45703 8.11768C4.49265 8.09415 4.53499 8.08294 4.57759 8.08577C4.62018 8.08859 4.66067 8.10528 4.69287 8.1333C5.22372 8.59246 5.90213 8.84515 6.60401 8.84515C7.30588 8.84515 7.98429 8.59246 8.51514 8.1333C8.54734 8.10528 8.58784 8.08859 8.63043 8.08577C8.67302 8.08294 8.71536 8.09415 8.75098 8.11768C9.16926 8.39286 9.53052 8.74616 9.81494 9.1582C10.5157 8.37355 10.9029 7.3582 10.9023 6.30615Z" fill="#535353"/>
</svg>
