<svg width="42" height="42" viewBox="0 0 42 42" fill="none" xmlns="http://www.w3.org/2000/svg">
<path d="M20.6047 5C17.3206 5 14.1102 5.93056 11.3796 7.67402C8.64899 9.41747 6.52073 11.8955 5.26396 14.7948C4.00719 17.694 3.67837 20.8843 4.31906 23.9621C4.95976 27.0399 6.54119 29.8671 8.8634 32.0861C11.1856 34.3051 14.1443 35.8162 17.3652 36.4285C20.5862 37.0407 23.9249 36.7265 26.959 35.5256C29.9931 34.3246 32.5864 32.291 34.4109 29.6817C36.2355 27.0725 37.2093 24.0048 37.2093 20.8667C37.2047 16.6599 35.4537 12.6268 32.3408 9.65214C29.2278 6.67753 25.0071 5.00444 20.6047 5ZM19.3274 13.5436C19.3274 13.2199 19.4619 12.9094 19.7015 12.6806C19.941 12.4517 20.2659 12.3231 20.6047 12.3231C20.9434 12.3231 21.2683 12.4517 21.5078 12.6806C21.7474 12.9094 21.8819 13.2199 21.8819 13.5436V22.0872C21.8819 22.4109 21.7474 22.7213 21.5078 22.9502C21.2683 23.1791 20.9434 23.3077 20.6047 23.3077C20.2659 23.3077 19.941 23.1791 19.7015 22.9502C19.4619 22.7213 19.3274 22.4109 19.3274 22.0872V13.5436ZM20.6047 29.4103C20.2257 29.4103 19.8553 29.3029 19.5402 29.1017C19.2252 28.9005 18.9796 28.6146 18.8346 28.2801C18.6896 27.9456 18.6516 27.5775 18.7255 27.2223C18.7995 26.8672 18.9819 26.541 19.2499 26.2849C19.5178 26.0289 19.8592 25.8545 20.2309 25.7839C20.6025 25.7133 20.9878 25.7495 21.3378 25.8881C21.6879 26.0266 21.9872 26.2613 22.1977 26.5624C22.4082 26.8634 22.5206 27.2174 22.5206 27.5795C22.5206 28.065 22.3187 28.5307 21.9594 28.874C21.6001 29.2174 21.1128 29.4103 20.6047 29.4103Z" fill="#EFB358"/>
</svg>
